<svg width="22" height="22" viewBox="0 0 22 22" fill="none" xmlns="http://www.w3.org/2000/svg">
    <circle opacity="0.5" cx="11" cy="11" r="10.5" stroke="white" />
    <rect x="0.0291344" y="0.569657" width="6.3793" height="6.39923" rx="3.18965"
        transform="matrix(0.733175 0.68004 -0.659971 0.751291 10.8923 4.12187)" stroke="white"
        stroke-width="0.795981" />
    <path fill-rule="evenodd" clip-rule="evenodd"
        d="M11.1577 13.5089C10.1463 13.5089 8.623 13.9149 7.34533 14.8759C6.05037 15.8499 5 17.4023 5 19.6666H5.83778C5.83778 17.7001 6.73526 16.3831 7.84893 15.5454C8.97988 14.6947 10.326 14.3467 11.1577 14.3467H11.1786C11.1786 14.3467 11.1786 14.3467 11.1786 14.3467C11.1786 14.3467 11.1786 14.3467 11.1786 14.3467C12.0103 14.3467 13.3565 14.6948 14.4874 15.5454C15.6011 16.3831 16.4985 17.7001 16.4985 19.6666H17.3363C17.3363 17.4023 16.2859 15.8499 14.991 14.8759C13.7133 13.9149 12.1901 13.5089 11.1786 13.5089C11.1786 13.5089 11.1786 13.5089 11.1786 13.5089C11.1786 13.5089 11.1786 13.5089 11.1786 13.5089H11.1577Z"
        fill="white" />
</svg>
    