<svg width="80" height="80" viewBox="0 0 80 80" fill="none" xmlns="http://www.w3.org/2000/svg">
    <circle cx="40" cy="40" r="40" fill="#E2E5ED" />
    <mask id="mask0_1012_3848" style="mask-type:alpha" maskUnits="userSpaceOnUse" x="0" y="0"
        width="80" height="80">
        <circle cx="40" cy="40" r="40" fill="#E2E5ED" />
    </mask>
    <g mask="url(#mask0_1012_3848)">
        <g opacity="0.5">
            <rect x="0.0732038" y="1.43133" width="28.494" height="28.5787" rx="14.247"
                transform="matrix(0.733175 0.68004 -0.659971 0.751291 43.6224 8.3062)"
                stroke="#CED0D6" stroke-width="2" />
            <path fill-rule="evenodd" clip-rule="evenodd"
                d="M43.813 49.1914C39.682 49.1914 33.3732 50.8627 28.0799 54.8442C22.7454 58.8567 18.4238 65.235 18.4238 74.5806H20.4238C20.4238 65.9457 24.3804 60.1295 29.2821 56.4425C34.2252 52.7245 40.111 51.1914 43.813 51.1914H43.9016C43.9016 51.1914 43.9016 51.1914 43.9016 51.1914C43.9017 51.1914 43.9019 51.1914 43.902 51.1914C47.604 51.1915 53.4896 52.7246 58.4324 56.4425C63.3342 60.1295 67.2908 65.9457 67.2908 74.5806H69.2908C69.2908 65.235 64.9692 58.8567 59.6347 54.8442C54.3415 50.8628 48.0331 49.1915 43.902 49.1914C43.9019 49.1914 43.9017 49.1914 43.9016 49.1914C43.9016 49.1914 43.9016 49.1914 43.9016 49.1914H43.813Z"
                fill="#CED0D6" />
        </g>
        <path fill-rule="evenodd" clip-rule="evenodd"
            d="M37.3892 49.1914C33.2581 49.1914 26.9494 50.8627 21.6561 54.8442C16.3215 58.8567 12 65.235 12 74.5806H14C14 65.9457 17.9565 60.1295 22.8583 56.4425C27.8014 52.7245 33.6872 51.1914 37.3892 51.1914H37.4777C37.4778 51.1914 37.4778 51.1914 37.4778 51.1914C37.4779 51.1914 37.4781 51.1914 37.4782 51.1914C41.1802 51.1915 47.0658 52.7246 52.0086 56.4425C56.9104 60.1295 60.8669 65.9457 60.8669 74.5806H62.8669C62.8669 65.235 58.5454 58.8567 53.2108 54.8442C47.9177 50.8628 41.6092 49.1915 37.4782 49.1914C37.4781 49.1914 37.4779 49.1914 37.4778 49.1914C37.4778 49.1914 37.4778 49.1914 37.4777 49.1914H37.3892Z"
            fill="#CED0D6" />
        <rect x="0.0732038" y="1.43133" width="28.494" height="28.5787" rx="14.247"
            transform="matrix(0.733175 0.68004 -0.659971 0.751291 35.597 8.3062)" stroke="#CED0D6"
            stroke-width="2" />
    </g>
</svg>
    