<svg width="138" height="42" viewBox="0 0 138 42" fill="none" xmlns="http://www.w3.org/2000/svg">
<rect width="138" height="42" rx="12" fill="#052CC0"/>
<mask id="mask0_78_342" style="mask-type:alpha" maskUnits="userSpaceOnUse" x="0" y="0" width="138" height="42">
<rect width="138" height="42" rx="12" fill="#060F8F"/>
</mask>
<g mask="url(#mask0_78_342)">
<g filter="url(#filter0_f_78_342)">
<path d="M17.4063 -27.4838C33.611 -34.8212 51.6174 -30.0139 57.625 -16.7464C63.6325 -3.47884 55.3661 13.2248 39.1615 20.5622C22.9569 27.8996 -25.5127 5.83831 -31.5202 -7.42922C-37.5277 -20.6967 1.20171 -20.1463 17.4063 -27.4838Z" fill="#21FFBE"/>
</g>
<g filter="url(#filter1_f_78_342)">
<path d="M77.9481 28.467C86.7362 22.0869 98.095 22.7478 103.319 29.943C108.542 37.1382 105.653 48.1432 96.8648 54.5233C88.0767 60.9034 56.3799 53.6703 51.1562 46.4751C45.9325 39.2798 69.16 34.8471 77.9481 28.467Z" fill="#20E4FF"/>
</g>
<g filter="url(#filter2_f_78_342)">
<path d="M16.1421 29.509C26.9266 34.0427 32.5116 45.2292 28.6164 54.4949C24.7213 63.7606 12.8211 67.5966 2.03658 63.063C-8.74792 58.5293 -19.2781 24.0904 -15.383 14.8247C-11.4878 5.55903 5.35765 24.9754 16.1421 29.509Z" fill="#060F8F"/>
</g>
<g filter="url(#filter3_f_78_342)">
<path d="M120.135 16.2613C103.57 17.3209 89.4383 7.18525 88.5708 -6.37718C87.7033 -19.9396 100.428 -31.793 116.993 -32.8526C133.558 -33.9121 168.589 1.33232 169.456 14.8947C170.324 28.4572 136.7 15.2018 120.135 16.2613Z" fill="#FF43CA"/>
</g>
</g>
<g filter="url(#filter4_d_78_342)">
<path d="M43.648 27.192C42.912 27.192 42.2453 27.0747 41.648 26.84C41.0613 26.5947 40.5547 26.232 40.128 25.752C39.712 25.272 39.392 24.68 39.168 23.976C38.944 23.2613 38.832 22.4347 38.832 21.496C38.832 20.5573 38.944 19.7253 39.168 19C39.392 18.264 39.712 17.6507 40.128 17.16C40.5547 16.6587 41.0613 16.28 41.648 16.024C42.2453 15.768 42.912 15.64 43.648 15.64C44.6507 15.64 45.4827 15.8533 46.144 16.28C46.8053 16.7067 47.3333 17.352 47.728 18.216L45.92 19.176C45.76 18.6747 45.4987 18.2747 45.136 17.976C44.7733 17.6667 44.2773 17.512 43.648 17.512C42.8587 17.512 42.2293 17.7787 41.76 18.312C41.3013 18.8453 41.072 19.592 41.072 20.552V22.312C41.072 23.2827 41.3013 24.0293 41.76 24.552C42.2293 25.064 42.8587 25.32 43.648 25.32C44.2773 25.32 44.7893 25.1493 45.184 24.808C45.5893 24.4667 45.8827 24.0453 46.064 23.544L47.776 24.552C47.3707 25.384 46.832 26.0347 46.16 26.504C45.488 26.9627 44.6507 27.192 43.648 27.192ZM52.7616 27.192C52.1643 27.192 51.6256 27.0907 51.1456 26.888C50.6763 26.6853 50.271 26.392 49.9296 26.008C49.599 25.624 49.343 25.1653 49.1616 24.632C48.9803 24.088 48.8896 23.48 48.8896 22.808C48.8896 22.136 48.9803 21.5333 49.1616 21C49.343 20.4667 49.599 20.0133 49.9296 19.64C50.271 19.256 50.6763 18.9627 51.1456 18.76C51.6256 18.5573 52.1643 18.456 52.7616 18.456C53.359 18.456 53.8976 18.5573 54.3776 18.76C54.8576 18.9627 55.263 19.256 55.5936 19.64C55.935 20.0133 56.1963 20.4667 56.3776 21C56.559 21.5333 56.6496 22.136 56.6496 22.808C56.6496 23.48 56.559 24.088 56.3776 24.632C56.1963 25.1653 55.935 25.624 55.5936 26.008C55.263 26.392 54.8576 26.6853 54.3776 26.888C53.8976 27.0907 53.359 27.192 52.7616 27.192ZM52.7616 25.544C53.3056 25.544 53.7323 25.3787 54.0416 25.048C54.351 24.7173 54.5056 24.232 54.5056 23.592V22.04C54.5056 21.4107 54.351 20.9307 54.0416 20.6C53.7323 20.2693 53.3056 20.104 52.7616 20.104C52.2283 20.104 51.807 20.2693 51.4976 20.6C51.1883 20.9307 51.0336 21.4107 51.0336 22.04V23.592C51.0336 24.232 51.1883 24.7173 51.4976 25.048C51.807 25.3787 52.2283 25.544 52.7616 25.544ZM58.4653 27V18.648H60.5133V20.04H60.5933C60.7639 19.592 61.0306 19.2187 61.3932 18.92C61.7666 18.6107 62.2786 18.456 62.9293 18.456C63.7933 18.456 64.4546 18.7387 64.9133 19.304C65.3719 19.8693 65.6013 20.6747 65.6013 21.72V27H63.5533V21.928C63.5533 21.3307 63.4466 20.8827 63.2333 20.584C63.0199 20.2853 62.6679 20.136 62.1773 20.136C61.9639 20.136 61.7559 20.168 61.5533 20.232C61.3613 20.2853 61.1853 20.3707 61.0253 20.488C60.8759 20.5947 60.7533 20.7333 60.6573 20.904C60.5613 21.064 60.5133 21.256 60.5133 21.48V27H58.4653ZM67.8715 27V18.648H69.9195V20.04H69.9995C70.1702 19.592 70.4368 19.2187 70.7995 18.92C71.1728 18.6107 71.6848 18.456 72.3355 18.456C73.1995 18.456 73.8608 18.7387 74.3195 19.304C74.7782 19.8693 75.0075 20.6747 75.0075 21.72V27H72.9595V21.928C72.9595 21.3307 72.8528 20.8827 72.6395 20.584C72.4262 20.2853 72.0742 20.136 71.5835 20.136C71.3702 20.136 71.1622 20.168 70.9595 20.232C70.7675 20.2853 70.5915 20.3707 70.4315 20.488C70.2822 20.5947 70.1595 20.7333 70.0635 20.904C69.9675 21.064 69.9195 21.256 69.9195 21.48V27H67.8715ZM80.6538 27.192C80.0351 27.192 79.4804 27.0907 78.9898 26.888C78.5098 26.6747 78.0991 26.3813 77.7578 26.008C77.4271 25.624 77.1711 25.1653 76.9898 24.632C76.8084 24.088 76.7178 23.48 76.7178 22.808C76.7178 22.1467 76.8031 21.5493 76.9738 21.016C77.1551 20.4827 77.4111 20.0293 77.7418 19.656C78.0724 19.272 78.4778 18.9787 78.9578 18.776C79.4378 18.5627 79.9818 18.456 80.5898 18.456C81.2404 18.456 81.8058 18.568 82.2858 18.792C82.7658 19.016 83.1604 19.32 83.4698 19.704C83.7791 20.088 84.0084 20.536 84.1578 21.048C84.3178 21.5493 84.3978 22.088 84.3978 22.664V23.336H78.8458V23.544C78.8458 24.152 79.0164 24.6427 79.3578 25.016C79.6991 25.3787 80.2058 25.56 80.8778 25.56C81.3898 25.56 81.8058 25.4533 82.1258 25.24C82.4564 25.0267 82.7498 24.7547 83.0058 24.424L84.1098 25.656C83.7684 26.136 83.2991 26.5147 82.7018 26.792C82.1151 27.0587 81.4324 27.192 80.6538 27.192ZM80.6218 19.992C80.0778 19.992 79.6458 20.1733 79.3258 20.536C79.0058 20.8987 78.8458 21.368 78.8458 21.944V22.072H82.2698V21.928C82.2698 21.352 82.1258 20.888 81.8378 20.536C81.5604 20.1733 81.1551 19.992 80.6218 19.992ZM89.4956 27.192C88.877 27.192 88.3276 27.0907 87.8476 26.888C87.3676 26.6853 86.9623 26.392 86.6316 26.008C86.3116 25.624 86.0663 25.1653 85.8956 24.632C85.725 24.088 85.6396 23.48 85.6396 22.808C85.6396 22.136 85.725 21.5333 85.8956 21C86.0663 20.4667 86.3116 20.0133 86.6316 19.64C86.9623 19.256 87.3676 18.9627 87.8476 18.76C88.3276 18.5573 88.877 18.456 89.4956 18.456C90.3383 18.456 91.0316 18.6427 91.5756 19.016C92.1303 19.3893 92.5303 19.9067 92.7756 20.568L91.0956 21.32C90.9996 20.968 90.8183 20.68 90.5516 20.456C90.2956 20.2213 89.9436 20.104 89.4956 20.104C88.9196 20.104 88.4876 20.2853 88.1996 20.648C87.9223 21.0107 87.7836 21.4853 87.7836 22.072V23.592C87.7836 24.1787 87.9223 24.6533 88.1996 25.016C88.4876 25.368 88.9196 25.544 89.4956 25.544C89.9863 25.544 90.365 25.4213 90.6316 25.176C90.8983 24.92 91.1063 24.6053 91.2556 24.232L92.8236 24.984C92.5463 25.72 92.125 26.2747 91.5596 26.648C90.9943 27.0107 90.3063 27.192 89.4956 27.192ZM97.0108 27C96.3068 27 95.7681 26.8187 95.3948 26.456C95.0321 26.0827 94.8508 25.5547 94.8508 24.872V20.28H93.6188V18.648H94.2588C94.5681 18.648 94.7761 18.5787 94.8828 18.44C95.0001 18.2907 95.0588 18.072 95.0588 17.784V16.36H96.8988V18.648H98.6108V20.28H96.8988V25.368H98.4828V27H97.0108ZM103.701 27.192C103.082 27.192 102.527 27.0907 102.037 26.888C101.557 26.6747 101.146 26.3813 100.805 26.008C100.474 25.624 100.218 25.1653 100.037 24.632C99.8553 24.088 99.7646 23.48 99.7646 22.808C99.7646 22.1467 99.85 21.5493 100.021 21.016C100.202 20.4827 100.458 20.0293 100.789 19.656C101.119 19.272 101.525 18.9787 102.005 18.776C102.485 18.5627 103.029 18.456 103.637 18.456C104.287 18.456 104.853 18.568 105.333 18.792C105.813 19.016 106.207 19.32 106.517 19.704C106.826 20.088 107.055 20.536 107.205 21.048C107.365 21.5493 107.445 22.088 107.445 22.664V23.336H101.893V23.544C101.893 24.152 102.063 24.6427 102.405 25.016C102.746 25.3787 103.253 25.56 103.925 25.56C104.437 25.56 104.853 25.4533 105.173 25.24C105.503 25.0267 105.797 24.7547 106.053 24.424L107.157 25.656C106.815 26.136 106.346 26.5147 105.749 26.792C105.162 27.0587 104.479 27.192 103.701 27.192ZM103.669 19.992C103.125 19.992 102.693 20.1733 102.373 20.536C102.053 20.8987 101.893 21.368 101.893 21.944V22.072H105.317V21.928C105.317 21.352 105.173 20.888 104.885 20.536C104.607 20.1733 104.202 19.992 103.669 19.992ZM114.431 25.608H114.351C114.201 26.088 113.919 26.472 113.503 26.76C113.087 27.048 112.601 27.192 112.047 27.192C110.991 27.192 110.18 26.8133 109.615 26.056C109.06 25.2987 108.783 24.216 108.783 22.808C108.783 21.4107 109.06 20.3387 109.615 19.592C110.18 18.8347 110.991 18.456 112.047 18.456C112.601 18.456 113.087 18.6 113.503 18.888C113.919 19.1653 114.201 19.544 114.351 20.024H114.431V15.16H116.479V27H114.431V25.608ZM112.703 25.496C113.193 25.496 113.604 25.3787 113.935 25.144C114.265 24.9093 114.431 24.5733 114.431 24.136V21.48C114.431 21.0747 114.265 20.7493 113.935 20.504C113.604 20.2587 113.193 20.136 112.703 20.136C112.169 20.136 111.737 20.3173 111.407 20.68C111.087 21.032 110.927 21.5067 110.927 22.104V23.544C110.927 24.1413 111.087 24.616 111.407 24.968C111.737 25.32 112.169 25.496 112.703 25.496Z" fill="white"/>
</g>
<g filter="url(#filter5_d_78_342)">
<path d="M20.7637 26.7183C20.5143 26.7183 20.2773 26.5986 20.1286 26.3925L17.0244 22.071H15V20.4976H17.4249C17.6767 20.4976 17.9126 20.6185 18.06 20.8234L20.5966 24.3539L24.4674 15.4714C24.5927 15.1851 24.874 15 25.1848 15H30.0235V16.5734H25.697L21.4811 26.2469C21.3681 26.5061 21.1261 26.6838 20.846 26.7134C20.8202 26.7171 20.792 26.7183 20.7637 26.7183Z" fill="white"/>
</g>
<defs>
<filter id="filter0_f_78_342" x="-62.3431" y="-61.1135" width="152.124" height="113.33" filterUnits="userSpaceOnUse" color-interpolation-filters="sRGB">
<feFlood flood-opacity="0" result="BackgroundImageFix"/>
<feBlend mode="normal" in="SourceGraphic" in2="BackgroundImageFix" result="shape"/>
<feGaussianBlur stdDeviation="15.0979" result="effect1_foregroundBlur_78_342"/>
</filter>
<filter id="filter1_f_78_342" x="26.3997" y="0.0827637" width="103.521" height="80.9" filterUnits="userSpaceOnUse" color-interpolation-filters="sRGB">
<feFlood flood-opacity="0" result="BackgroundImageFix"/>
<feBlend mode="normal" in="SourceGraphic" in2="BackgroundImageFix" result="shape"/>
<feGaussianBlur stdDeviation="12" result="effect1_foregroundBlur_78_342"/>
</filter>
<filter id="filter2_f_78_342" x="-36.2107" y="-7.64941" width="86.0674" height="92.6172" filterUnits="userSpaceOnUse" color-interpolation-filters="sRGB">
<feFlood flood-opacity="0" result="BackgroundImageFix"/>
<feBlend mode="normal" in="SourceGraphic" in2="BackgroundImageFix" result="shape"/>
<feGaussianBlur stdDeviation="10" result="effect1_foregroundBlur_78_342"/>
</filter>
<filter id="filter3_f_78_342" x="48.5289" y="-72.876" width="160.944" height="133.921" filterUnits="userSpaceOnUse" color-interpolation-filters="sRGB">
<feFlood flood-opacity="0" result="BackgroundImageFix"/>
<feBlend mode="normal" in="SourceGraphic" in2="BackgroundImageFix" result="shape"/>
<feGaussianBlur stdDeviation="20" result="effect1_foregroundBlur_78_342"/>
</filter>
<filter id="filter4_d_78_342" x="32.9729" y="10.0332" width="89.3648" height="23.7504" filterUnits="userSpaceOnUse" color-interpolation-filters="sRGB">
<feFlood flood-opacity="0" result="BackgroundImageFix"/>
<feColorMatrix in="SourceAlpha" type="matrix" values="0 0 0 0 0 0 0 0 0 0 0 0 0 0 0 0 0 0 127 0" result="hardAlpha"/>
<feOffset dy="0.732394"/>
<feGaussianBlur stdDeviation="2.92958"/>
<feColorMatrix type="matrix" values="0 0 0 0 0 0 0 0 0 0 0 0 0 0 0 0 0 0 0.7 0"/>
<feBlend mode="normal" in2="BackgroundImageFix" result="effect1_dropShadow_78_342"/>
<feBlend mode="normal" in="SourceGraphic" in2="effect1_dropShadow_78_342" result="shape"/>
</filter>
<filter id="filter5_d_78_342" x="9.14085" y="9.87324" width="26.7417" height="23.4366" filterUnits="userSpaceOnUse" color-interpolation-filters="sRGB">
<feFlood flood-opacity="0" result="BackgroundImageFix"/>
<feColorMatrix in="SourceAlpha" type="matrix" values="0 0 0 0 0 0 0 0 0 0 0 0 0 0 0 0 0 0 127 0" result="hardAlpha"/>
<feOffset dy="0.732394"/>
<feGaussianBlur stdDeviation="2.92958"/>
<feColorMatrix type="matrix" values="0 0 0 0 0 0 0 0 0 0 0 0 0 0 0 0 0 0 0.7 0"/>
<feBlend mode="normal" in2="BackgroundImageFix" result="effect1_dropShadow_78_342"/>
<feBlend mode="normal" in="SourceGraphic" in2="effect1_dropShadow_78_342" result="shape"/>
</filter>
</defs>
</svg>
