<svg width="138" height="42" viewBox="0 0 138 42" fill="none" xmlns="http://www.w3.org/2000/svg">
<rect width="138" height="42" rx="12" fill="#052CC0"/>
<mask id="mask0_1_13" style="mask-type:alpha" maskUnits="userSpaceOnUse" x="0" y="0" width="138" height="42">
<rect y="7.62939e-06" width="138" height="42" rx="12" fill="#060F8F"/>
</mask>
<g mask="url(#mask0_1_13)">
<g filter="url(#filter0_f_1_13)">
<path d="M17.4063 -27.4838C33.6109 -34.8212 51.6174 -30.0139 57.6249 -16.7464C63.6325 -3.47885 55.3661 13.2248 39.1615 20.5622C22.9568 27.8996 -25.5127 5.83831 -31.5202 -7.42923C-37.5277 -20.6968 1.20168 -20.1463 17.4063 -27.4838Z" fill="#21FFBE"/>
</g>
<g filter="url(#filter1_f_1_13)">
<path d="M77.9482 28.4671C86.7362 22.087 98.095 22.7478 103.319 29.943C108.542 37.1383 105.653 48.1432 96.8649 54.5233C88.0768 60.9034 56.3799 53.6703 51.1562 46.4751C45.9325 39.2798 69.1601 34.8472 77.9482 28.4671Z" fill="#20E4FF"/>
</g>
<g filter="url(#filter2_f_1_13)">
<path d="M16.1421 29.5091C26.9266 34.0427 32.5116 45.2292 28.6164 54.4949C24.7213 63.7606 12.8211 67.5966 2.03658 63.063C-8.74792 58.5293 -19.2781 24.0904 -15.383 14.8247C-11.4878 5.55904 5.35765 24.9754 16.1421 29.5091Z" fill="#060F8F"/>
</g>
<g filter="url(#filter3_f_1_13)">
<path d="M120.135 16.2613C103.57 17.3209 89.4382 7.18525 88.5707 -6.37718C87.7032 -19.9396 100.428 -31.793 116.993 -32.8526C133.558 -33.9121 168.589 1.33232 169.456 14.8947C170.324 28.4572 136.699 15.2018 120.135 16.2613Z" fill="#FF43CA"/>
</g>
</g>
<defs>
<filter id="filter0_f_1_13" x="-62.3431" y="-61.1135" width="152.124" height="113.33" filterUnits="userSpaceOnUse" color-interpolation-filters="sRGB">
<feFlood flood-opacity="0" result="BackgroundImageFix"/>
<feBlend mode="normal" in="SourceGraphic" in2="BackgroundImageFix" result="shape"/>
<feGaussianBlur stdDeviation="15.0979" result="effect1_foregroundBlur_1_13"/>
</filter>
<filter id="filter1_f_1_13" x="26.3997" y="0.0827789" width="103.521" height="80.9" filterUnits="userSpaceOnUse" color-interpolation-filters="sRGB">
<feFlood flood-opacity="0" result="BackgroundImageFix"/>
<feBlend mode="normal" in="SourceGraphic" in2="BackgroundImageFix" result="shape"/>
<feGaussianBlur stdDeviation="12" result="effect1_foregroundBlur_1_13"/>
</filter>
<filter id="filter2_f_1_13" x="-36.2107" y="-7.64941" width="86.0674" height="92.6172" filterUnits="userSpaceOnUse" color-interpolation-filters="sRGB">
<feFlood flood-opacity="0" result="BackgroundImageFix"/>
<feBlend mode="normal" in="SourceGraphic" in2="BackgroundImageFix" result="shape"/>
<feGaussianBlur stdDeviation="10" result="effect1_foregroundBlur_1_13"/>
</filter>
<filter id="filter3_f_1_13" x="48.5289" y="-72.8759" width="160.944" height="133.921" filterUnits="userSpaceOnUse" color-interpolation-filters="sRGB">
<feFlood flood-opacity="0" result="BackgroundImageFix"/>
<feBlend mode="normal" in="SourceGraphic" in2="BackgroundImageFix" result="shape"/>
<feGaussianBlur stdDeviation="20" result="effect1_foregroundBlur_1_13"/>
</filter>
</defs>
</svg>
