<svg width="96" height="25" viewBox="0 0 96 25" fill="none" xmlns="http://www.w3.org/2000/svg">
<g filter="url(#filter0_d_0_1)">
<path d="M34.648 18.192C33.912 18.192 33.2453 18.0747 32.648 17.84C32.0613 17.5947 31.5547 17.232 31.128 16.752C30.712 16.272 30.392 15.68 30.168 14.976C29.944 14.2613 29.832 13.4347 29.832 12.496C29.832 11.5573 29.944 10.7253 30.168 10C30.392 9.264 30.712 8.65067 31.128 8.16C31.5547 7.65867 32.0613 7.28 32.648 7.024C33.2453 6.768 33.912 6.64 34.648 6.64C35.6507 6.64 36.4827 6.85333 37.144 7.28C37.8053 7.70667 38.3333 8.352 38.728 9.216L36.92 10.176C36.76 9.67467 36.4987 9.27467 36.136 8.976C35.7733 8.66667 35.2773 8.512 34.648 8.512C33.8587 8.512 33.2293 8.77867 32.76 9.312C32.3013 9.84533 32.072 10.592 32.072 11.552V13.312C32.072 14.2827 32.3013 15.0293 32.76 15.552C33.2293 16.064 33.8587 16.32 34.648 16.32C35.2773 16.32 35.7893 16.1493 36.184 15.808C36.5893 15.4667 36.8827 15.0453 37.064 14.544L38.776 15.552C38.3707 16.384 37.832 17.0347 37.16 17.504C36.488 17.9627 35.6507 18.192 34.648 18.192ZM43.7616 18.192C43.1643 18.192 42.6256 18.0907 42.1456 17.888C41.6763 17.6853 41.271 17.392 40.9296 17.008C40.599 16.624 40.343 16.1653 40.1616 15.632C39.9803 15.088 39.8896 14.48 39.8896 13.808C39.8896 13.136 39.9803 12.5333 40.1616 12C40.343 11.4667 40.599 11.0133 40.9296 10.64C41.271 10.256 41.6763 9.96267 42.1456 9.76C42.6256 9.55733 43.1643 9.456 43.7616 9.456C44.359 9.456 44.8976 9.55733 45.3776 9.76C45.8576 9.96267 46.263 10.256 46.5936 10.64C46.935 11.0133 47.1963 11.4667 47.3776 12C47.559 12.5333 47.6496 13.136 47.6496 13.808C47.6496 14.48 47.559 15.088 47.3776 15.632C47.1963 16.1653 46.935 16.624 46.5936 17.008C46.263 17.392 45.8576 17.6853 45.3776 17.888C44.8976 18.0907 44.359 18.192 43.7616 18.192ZM43.7616 16.544C44.3056 16.544 44.7323 16.3787 45.0416 16.048C45.351 15.7173 45.5056 15.232 45.5056 14.592V13.04C45.5056 12.4107 45.351 11.9307 45.0416 11.6C44.7323 11.2693 44.3056 11.104 43.7616 11.104C43.2283 11.104 42.807 11.2693 42.4976 11.6C42.1883 11.9307 42.0336 12.4107 42.0336 13.04V14.592C42.0336 15.232 42.1883 15.7173 42.4976 16.048C42.807 16.3787 43.2283 16.544 43.7616 16.544ZM49.4653 18V9.648H51.5133V11.04H51.5933C51.7639 10.592 52.0306 10.2187 52.3932 9.92C52.7666 9.61067 53.2786 9.456 53.9293 9.456C54.7933 9.456 55.4546 9.73867 55.9133 10.304C56.3719 10.8693 56.6013 11.6747 56.6013 12.72V18H54.5533V12.928C54.5533 12.3307 54.4466 11.8827 54.2333 11.584C54.0199 11.2853 53.6679 11.136 53.1773 11.136C52.9639 11.136 52.7559 11.168 52.5533 11.232C52.3613 11.2853 52.1853 11.3707 52.0253 11.488C51.8759 11.5947 51.7533 11.7333 51.6573 11.904C51.5613 12.064 51.5133 12.256 51.5133 12.48V18H49.4653ZM58.8715 18V9.648H60.9195V11.04H60.9995C61.1702 10.592 61.4368 10.2187 61.7995 9.92C62.1728 9.61067 62.6848 9.456 63.3355 9.456C64.1995 9.456 64.8608 9.73867 65.3195 10.304C65.7782 10.8693 66.0075 11.6747 66.0075 12.72V18H63.9595V12.928C63.9595 12.3307 63.8528 11.8827 63.6395 11.584C63.4262 11.2853 63.0742 11.136 62.5835 11.136C62.3702 11.136 62.1622 11.168 61.9595 11.232C61.7675 11.2853 61.5915 11.3707 61.4315 11.488C61.2822 11.5947 61.1595 11.7333 61.0635 11.904C60.9675 12.064 60.9195 12.256 60.9195 12.48V18H58.8715ZM71.6538 18.192C71.0351 18.192 70.4804 18.0907 69.9898 17.888C69.5098 17.6747 69.0991 17.3813 68.7578 17.008C68.4271 16.624 68.1711 16.1653 67.9898 15.632C67.8084 15.088 67.7178 14.48 67.7178 13.808C67.7178 13.1467 67.8031 12.5493 67.9738 12.016C68.1551 11.4827 68.4111 11.0293 68.7418 10.656C69.0724 10.272 69.4778 9.97867 69.9578 9.776C70.4378 9.56267 70.9818 9.456 71.5898 9.456C72.2404 9.456 72.8058 9.568 73.2858 9.792C73.7658 10.016 74.1604 10.32 74.4698 10.704C74.7791 11.088 75.0084 11.536 75.1578 12.048C75.3178 12.5493 75.3978 13.088 75.3978 13.664V14.336H69.8458V14.544C69.8458 15.152 70.0164 15.6427 70.3578 16.016C70.6991 16.3787 71.2058 16.56 71.8778 16.56C72.3898 16.56 72.8058 16.4533 73.1258 16.24C73.4564 16.0267 73.7498 15.7547 74.0058 15.424L75.1098 16.656C74.7684 17.136 74.2991 17.5147 73.7018 17.792C73.1151 18.0587 72.4324 18.192 71.6538 18.192ZM71.6218 10.992C71.0778 10.992 70.6458 11.1733 70.3258 11.536C70.0058 11.8987 69.8458 12.368 69.8458 12.944V13.072H73.2698V12.928C73.2698 12.352 73.1258 11.888 72.8378 11.536C72.5604 11.1733 72.1551 10.992 71.6218 10.992ZM80.4956 18.192C79.877 18.192 79.3276 18.0907 78.8476 17.888C78.3676 17.6853 77.9623 17.392 77.6316 17.008C77.3116 16.624 77.0663 16.1653 76.8956 15.632C76.725 15.088 76.6396 14.48 76.6396 13.808C76.6396 13.136 76.725 12.5333 76.8956 12C77.0663 11.4667 77.3116 11.0133 77.6316 10.64C77.9623 10.256 78.3676 9.96267 78.8476 9.76C79.3276 9.55733 79.877 9.456 80.4956 9.456C81.3383 9.456 82.0316 9.64267 82.5756 10.016C83.1303 10.3893 83.5303 10.9067 83.7756 11.568L82.0956 12.32C81.9996 11.968 81.8183 11.68 81.5516 11.456C81.2956 11.2213 80.9436 11.104 80.4956 11.104C79.9196 11.104 79.4876 11.2853 79.1996 11.648C78.9223 12.0107 78.7836 12.4853 78.7836 13.072V14.592C78.7836 15.1787 78.9223 15.6533 79.1996 16.016C79.4876 16.368 79.9196 16.544 80.4956 16.544C80.9863 16.544 81.365 16.4213 81.6316 16.176C81.8983 15.92 82.1063 15.6053 82.2556 15.232L83.8236 15.984C83.5463 16.72 83.125 17.2747 82.5596 17.648C81.9943 18.0107 81.3063 18.192 80.4956 18.192ZM88.0108 18C87.3068 18 86.7681 17.8187 86.3948 17.456C86.0321 17.0827 85.8508 16.5547 85.8508 15.872V11.28H84.6188V9.648H85.2588C85.5681 9.648 85.7761 9.57867 85.8828 9.44C86.0001 9.29067 86.0588 9.072 86.0588 8.784V7.36H87.8988V9.648H89.6108V11.28H87.8988V16.368H89.4828V18H88.0108Z" fill="white"/>
</g>
<g filter="url(#filter1_d_0_1)">
<path d="M11.7637 17.7183C11.5143 17.7183 11.2773 17.5986 11.1286 17.3925L8.02442 13.071H6V11.4976H8.42488C8.67671 11.4976 8.91256 11.6185 9.05997 11.8234L11.5966 15.3539L15.4674 6.4714C15.5927 6.1851 15.874 6 16.1848 6H21.0235V7.57338H16.697L12.4811 17.2469C12.3681 17.5061 12.1261 17.6838 11.846 17.7134C11.8202 17.7171 11.792 17.7183 11.7637 17.7183Z" fill="white"/>
</g>
<defs>
<filter id="filter0_d_0_1" x="23.9728" y="1.51325" width="71.4971" height="23.2703" filterUnits="userSpaceOnUse" color-interpolation-filters="sRGB">
<feFlood flood-opacity="0" result="BackgroundImageFix"/>
<feColorMatrix in="SourceAlpha" type="matrix" values="0 0 0 0 0 0 0 0 0 0 0 0 0 0 0 0 0 0 127 0" result="hardAlpha"/>
<feOffset dy="0.732394"/>
<feGaussianBlur stdDeviation="2.92958"/>
<feColorMatrix type="matrix" values="0 0 0 0 0 0 0 0 0 0 0 0 0 0 0 0 0 0 0.7 0"/>
<feBlend mode="normal" in2="BackgroundImageFix" result="effect1_dropShadow_0_1"/>
<feBlend mode="normal" in="SourceGraphic" in2="effect1_dropShadow_0_1" result="shape"/>
</filter>
<filter id="filter1_d_0_1" x="0.140846" y="0.87324" width="26.7418" height="23.4366" filterUnits="userSpaceOnUse" color-interpolation-filters="sRGB">
<feFlood flood-opacity="0" result="BackgroundImageFix"/>
<feColorMatrix in="SourceAlpha" type="matrix" values="0 0 0 0 0 0 0 0 0 0 0 0 0 0 0 0 0 0 127 0" result="hardAlpha"/>
<feOffset dy="0.732394"/>
<feGaussianBlur stdDeviation="2.92958"/>
<feColorMatrix type="matrix" values="0 0 0 0 0 0 0 0 0 0 0 0 0 0 0 0 0 0 0.7 0"/>
<feBlend mode="normal" in2="BackgroundImageFix" result="effect1_dropShadow_0_1"/>
<feBlend mode="normal" in="SourceGraphic" in2="effect1_dropShadow_0_1" result="shape"/>
</filter>
</defs>
</svg>
