<svg width="22" height="22" viewBox="0 0 22 22" fill="none" xmlns="http://www.w3.org/2000/svg">
    <circle opacity="0.5" cx="11" cy="11" r="10.5" stroke="white" />
    <circle opacity="0.5" cx="11" cy="11" r="10.5" stroke="white" />
    <rect x="0.0291344" y="0.569657" width="7.27401" height="7.29642" rx="3.637"
        transform="matrix(0.733175 0.68004 -0.659971 0.751291 10.1889 2.82414)" stroke="white"
        stroke-width="0.795981" />
    <rect opacity="0.3" x="0.0291344" y="0.569657" width="7.27401" height="7.29642" rx="3.637"
        transform="matrix(0.733175 0.68004 -0.659971 0.751291 12.5629 2.82414)" stroke="white"
        stroke-width="0.795981" />
    <path fill-rule="evenodd" clip-rule="evenodd"
        d="M10.5353 13.4493C9.58907 13.4493 8.24569 13.7683 7.00056 14.4968C5.7486 15.2292 4.56851 16.3925 4.00516 18.0972C3.93256 18.3168 4.05179 18.5537 4.27145 18.6263C4.49111 18.6989 4.72803 18.5797 4.80063 18.36C5.28604 16.8912 6.3051 15.8743 7.42361 15.2199C8.54895 14.5615 9.74738 14.2871 10.5353 14.2871H10.5588C10.5588 14.2871 10.5589 14.2871 10.5589 14.2871C11.4334 14.2871 12.8071 14.6248 14.0254 15.4424C15.232 16.2522 16.2658 17.5176 16.5293 19.3749C16.5618 19.604 16.7738 19.7633 17.0029 19.7308C17.2319 19.6983 17.3913 19.4863 17.3588 19.2572C17.0557 17.1211 15.8567 15.6625 14.4923 14.7468C13.1395 13.8389 11.6039 13.4493 10.5589 13.4493C10.5589 13.4493 10.5588 13.4493 10.5588 13.4493H10.5353Z"
        fill="white" />
    <path opacity="0.3" fill-rule="evenodd" clip-rule="evenodd"
        d="M12.9097 13.4493C11.8115 13.4493 10.1679 13.8798 8.76452 14.8943C7.34596 15.9198 6.15988 17.5536 6.04541 19.9422C6.03434 20.1732 6.21269 20.3695 6.44377 20.3806C6.67485 20.3917 6.87116 20.2133 6.88223 19.9823C6.98265 17.8869 8.00964 16.4738 9.25534 15.5732C10.5162 14.6617 11.9881 14.2871 12.9097 14.2871H12.9332C13.6248 14.2871 14.6374 14.4988 15.6407 15.0009C16.6401 15.5011 17.6038 16.2759 18.2331 17.3808C18.3476 17.5819 18.6034 17.652 18.8044 17.5375C19.0054 17.423 19.0756 17.1672 18.9611 16.9662C18.2318 15.6857 17.1269 14.8079 16.0156 14.2517C14.9084 13.6976 13.7683 13.4493 12.9332 13.4493M12.9097 13.4493H12.9332H12.9097Z"
        fill="white" />
</svg>
    