<svg width="27" height="27" viewBox="0 0 27 27" fill="none" xmlns="http://www.w3.org/2000/svg">
    <g clip-path="url(#clip0_614_2587)">
        <path
            d="M17.9689 10.5207L16.4793 9.03104L13.5 12.0103L10.5207 9.03104L9.03108 10.5207L12.0104 13.5L9.03108 16.4792L10.5207 17.9689L13.5 14.9896L16.4793 17.9689L17.9689 16.4792L14.9896 13.5L17.9689 10.5207ZM20.9482 6.05177C16.8442 1.94781 10.1558 1.94781 6.05181 6.05177C1.94785 10.1557 1.94785 16.8442 6.05181 20.9482C10.1558 25.0521 16.8442 25.0521 20.9482 20.9482C25.0521 16.8442 25.0521 10.1557 20.9482 6.05177ZM7.54145 19.4585C4.25679 16.1739 4.25679 10.8261 7.54145 7.54141C10.8261 4.25675 16.1739 4.25675 19.4586 7.54141C22.7432 10.8261 22.7432 16.1739 19.4586 19.4585C16.1739 22.7432 10.8261 22.7432 7.54145 19.4585Z"
            fill="white" />
    </g>
    <defs>
        <clipPath id="clip0_614_2587">
            <rect width="25.28" height="25.28" fill="white" transform="translate(0.859985 0.859985)" />
        </clipPath>
    </defs>
</svg>
    